<svg xmlns="http://www.w3.org/2000/svg" xmlns:xlink="http://www.w3.org/1999/xlink" width="221" height="60" viewBox="0 0 221 60">
    <defs>
        <path id="a" d="M0 .203h59.592V58.5H0z"/>
        <path id="c" d="M.313.17h15.492v23.347H.313z"/>
    </defs>
    <g fill="none" fill-rule="evenodd">
        <g transform="translate(0 .296)">
            <mask id="b" fill="#fff">
                <use xlink:href="#a"/>
            </mask>
            <path fill="#35C5C2" d="M42.498 27.995a86.6 86.6 0 0 1-.833 2.586c.317-.4.616-.808.926-1.212.059-.076.67-.886.919-1.218a.74.74 0 0 0 .055-.06c1.07-1.431 2.142-2.87 3.22-4.297 1.817-2.393 3.62-5.124 5.99-7.024 1.078-.861 2.622-1.46 4.054-1.449.782.002 2.763.203 2.763.558V9.294c0-5.193-5.276-9.09-10.47-9.09H8.051C2.859.203 0 4.1 0 9.293v41.065C0 55.55 2.86 58.5 8.05 58.5h41.072c5.194 0 10.47-2.95 10.47-8.14V24.796c0 .02-.456-.39-.456-.39-.966 1.03-2.506 2.31-3.198 3.56-.165.298-.707.497-.913.765-.127.166-.109.52-.184.619-.282.378-.595.73-.875 1.107-.23.308-.483.628-.712.945-2.32 3.101-4.611 6.27-7.19 9.172-.932 1.04-1.908 2.082-3.015 2.948-1.34 1.056-2.826 2.257-4.573 2.552-2.382.41-4.62-.014-6.438-1.719-1.518-1.418-2.072-3.358-2.238-5.361-.155-1.802.198-3.683.688-5.498-1.945 2.694-3.89 5.43-6.114 7.9-1.771 1.967-4.164 4.332-6.91 4.723-2.291.33-4.503.006-6.237-1.677-1.451-1.405-1.886-3.154-2.13-5.064-.31-2.437.382-5.077.97-7.431.282-1.116.588-2.242.907-3.349.413-1.44.838-2.87 1.232-4.314.06-.21.115-.41.172-.616-.829-.423-1.55-1.064-2.02-1.863-1.399-2.395-.48-5.233 1.744-6.705.414-.267.838-.533 1.283-.73 1.365-.597 1.935-.793 3.4-.94 1.094-.114 2.029.296 2.997.713 1.444.628 2.693 2.459 2.917 3.985.394 2.699-.12 5.275-.813 7.891-.107.41-.22.822-.334 1.232-.306 1.087-.62 2.17-.936 3.251.185-.244.366-.486.546-.738.636-.867 1.26-1.732 1.892-2.607.33-.454.66-.905.987-1.36 1.881-2.567 3.755-5.263 6.05-7.491 2.223-2.155 5.56-4.348 8.819-3.139 2.147.802 3.876 2.301 4.426 4.623.41 1.72.252 3.276-.053 4.997a28.201 28.201 0 0 1-.785 3.207" mask="url(#b)"/>
        </g>
        <path fill="#FFF" d="M69.97 27.854c0-1.74-.035-3.168-.14-4.56h2.67l.138 2.715h.103c.936-1.602 2.496-3.099 5.268-3.099 2.287 0 4.02 1.393 4.747 3.377h.07a6.94 6.94 0 0 1 1.87-2.193c1.006-.766 2.115-1.184 3.709-1.184 2.217 0 5.51 1.463 5.51 7.311v9.922h-2.98v-9.54c0-3.237-1.179-5.186-3.64-5.186-1.732 0-3.083 1.288-3.603 2.785a5.073 5.073 0 0 0-.243 1.532v10.409h-2.98V30.047c0-2.68-1.178-4.63-3.5-4.63-1.906 0-3.292 1.532-3.777 3.063-.173.453-.243.975-.243 1.498v10.165h-2.98v-12.29zM99.977 23.293l3.673 9.957c.38 1.114.797 2.437 1.074 3.446h.07c.311-1.009.658-2.298 1.074-3.516l3.327-9.887h3.222l-4.574 12.011c-2.183 5.779-3.673 8.738-5.752 10.548-1.49 1.323-2.98 1.845-3.743 1.984l-.762-2.576a8.059 8.059 0 0 0 2.668-1.497c.832-.661 1.871-1.845 2.564-3.411.139-.314.243-.558.243-.731 0-.175-.07-.418-.208-.801L96.65 23.293h3.327zM116.366 23.293l2.218 8.564c.484 1.88.935 3.621 1.247 5.361h.104c.38-1.706.936-3.516 1.49-5.326l2.738-8.599h2.564l2.599 8.425c.624 2.02 1.109 3.794 1.49 5.5h.104c.277-1.706.727-3.48 1.282-5.465l2.39-8.46h3.016l-5.406 16.85h-2.772l-2.565-8.042c-.589-1.88-1.074-3.551-1.49-5.536h-.069c-.416 2.02-.935 3.76-1.525 5.57l-2.702 8.008h-2.773l-5.059-16.85h3.119zM142.526 31.753c0 3.69 2.114 6.475 5.094 6.475 2.911 0 5.094-2.75 5.094-6.545 0-2.855-1.42-6.475-5.024-6.475s-5.164 3.342-5.164 6.545m13.307-.174c0 6.231-4.297 8.946-8.351 8.946-4.54 0-8.04-3.341-8.04-8.668 0-5.64 3.674-8.947 8.317-8.947 4.817 0 8.074 3.516 8.074 8.669M159.333 28.55c0-1.984-.035-3.69-.139-5.256h2.668l.104 3.307h.139c.762-2.263 2.599-3.69 4.643-3.69.347 0 .59.035.866.104v2.89a4.566 4.566 0 0 0-1.04-.105c-2.147 0-3.672 1.636-4.088 3.934-.07.418-.139.905-.139 1.427v8.982h-3.014V28.55zM173.678 31.022h.07c.415-.592 1.004-1.323 1.49-1.915l4.92-5.814h3.673l-6.48 6.928 7.38 9.922h-3.707l-5.787-8.077-1.56 1.74v6.337h-3.014V15.426h3.015v15.596zM200.55 35.696c0 1.684.033 3.167.134 4.447h-2.616l-.167-2.662h-.067c-.772 1.314-2.482 3.033-5.365 3.033-2.549 0-5.6-1.415-5.6-7.143v-9.535h2.95v9.03c0 3.099.94 5.188 3.622 5.188 1.978 0 3.353-1.381 3.89-2.695a4.37 4.37 0 0 0 .268-1.516V23.836h2.95v11.86z"/>
        <g transform="translate(205 23.297)">
            <mask id="d" fill="#fff">
                <use xlink:href="#c"/>
            </mask>
            <path fill="#FFF" d="M3.365 10.21c0 .437.067.842.134 1.212.536 2.055 2.314 3.47 4.426 3.47 3.118 0 4.93-2.56 4.93-6.3 0-3.268-1.711-6.064-4.83-6.064-2.011 0-3.89 1.448-4.46 3.672-.1.37-.2.809-.2 1.213v2.796zM.447 5.862C.447 3.774.38 2.09.313.54h2.649l.134 2.796h.067C4.371 1.348 6.282.17 8.931.17c3.923 0 6.874 3.336 6.874 8.288 0 5.863-3.555 8.76-7.377 8.76-2.146 0-4.024-.943-4.996-2.56h-.067v8.86H.447V5.863z" mask="url(#d)"/>
        </g>
        <path fill="#FEFEFE" d="M56.778 15.617c-1.432-.011-2.731.589-3.809 1.455-2.37 1.894-4.323 4.625-6.135 7.019-1.084 1.426-2.218 2.9-3.293 4.332-.013.024-1.807 2.085-2.126 2.489.29-.854.649-1.735.906-2.603.318-1.054.63-2.131.824-3.216.301-1.72.479-3.281.07-5.004-.548-2.315-2.272-3.823-4.418-4.618-3.256-1.212-6.592.977-8.815 3.134-2.298 2.226-4.171 4.922-6.049 7.49-.33.454-.656.906-.983 1.36-.635.875-1.258 1.739-1.892 2.606-.179.252-.363.494-.544.738.315-1.08.631-2.164.93-3.251.116-.41.23-.822.34-1.231.69-2.616 1.202-5.193.808-7.892-.22-1.526-1.473-3.357-2.917-3.985-.965-.417-1.903-.827-2.994-.712-1.467.146-2.031.347-3.399.94-.451.201-.874.462-1.282.73-2.224 1.472-3.15 4.314-1.745 6.704.467.802 1.187 1.448 2.017 1.867-.059.21-.11.411-.165.623-.401 1.441-.827 2.881-1.24 4.323-.316 1.11-.625 2.214-.903 3.329-.59 2.354-1.282 4.994-.97 7.431.245 1.91.676 3.66 2.129 5.064 1.738 1.682 3.946 2.008 6.237 1.677 2.745-.39 5.14-2.756 6.908-4.723 2.226-2.469 4.17-5.205 6.117-7.9-.494 1.815-.846 3.696-.693 5.498.171 2.004.722 3.944 2.244 5.362 1.813 1.705 4.05 2.133 6.436 1.724 1.751-.3 3.227-1.502 4.571-2.552 1.102-.87 2.07-1.908 3.003-2.954 2.583-2.897 4.866-6.041 7.185-9.148.231-.314 4.738-5.646 5.813-6.567.273-.229.648-.043.648-.063v-8.918c0-.355-2.034-.556-2.814-.558"/>
    </g>
</svg>
